<mxfile host="app.diagrams.net" modified="2021-11-15T00:01:21.011Z" agent="5.0 (Windows NT 10.0; Win64; x64) AppleWebKit/537.36 (KHTML, like Gecko) Chrome/95.0.4638.69 Safari/537.36" etag="sM5cCTaVoM25n3USeak8" version="15.2.9" type="github">
  <diagram id="VDdS1Ym82Mv0rxRFRpkZ" name="Page-1">
    <mxGraphModel dx="1021" dy="529" grid="1" gridSize="10" guides="1" tooltips="1" connect="1" arrows="1" fold="1" page="1" pageScale="1" pageWidth="827" pageHeight="1169" math="0" shadow="0">
      <root>
        <mxCell id="0" />
        <mxCell id="1" parent="0" />
        <mxCell id="L4K-rOw-liugyd5PohJu-1" value="" style="rounded=0;whiteSpace=wrap;html=1;fillColor=none;strokeColor=#d3d3d3;strokeWidth=2;" vertex="1" parent="1">
          <mxGeometry x="19" y="20" width="790" height="670" as="geometry" />
        </mxCell>
        <mxCell id="L4K-rOw-liugyd5PohJu-2" value="Diagrama de despliegue" style="text;strokeColor=none;fillColor=none;html=1;fontSize=24;fontStyle=1;verticalAlign=middle;align=center;" vertex="1" parent="1">
          <mxGeometry x="30" y="40" width="280" height="40" as="geometry" />
        </mxCell>
        <mxCell id="L4K-rOw-liugyd5PohJu-3" value="" style="line;strokeWidth=1;rotatable=0;dashed=0;labelPosition=right;align=left;verticalAlign=middle;spacingTop=0;spacingLeft=6;points=[];portConstraint=eastwest;" vertex="1" parent="1">
          <mxGeometry x="30" y="80" width="280" height="10" as="geometry" />
        </mxCell>
        <mxCell id="L4K-rOw-liugyd5PohJu-6" value="" style="verticalAlign=top;align=left;spacingTop=8;spacingLeft=2;spacingRight=12;shape=cube;size=10;direction=south;fontStyle=4;html=1;fillColor=#fff2cc;strokeColor=#d6b656;" vertex="1" parent="1">
          <mxGeometry x="240" y="140" width="290" height="250" as="geometry" />
        </mxCell>
        <mxCell id="L4K-rOw-liugyd5PohJu-7" value="&amp;lt;&amp;lt;artefact&amp;gt;&amp;gt;&lt;br&gt;piloto-autenticacion-biometrica.jar" style="html=1;verticalAlign=top;" vertex="1" parent="1">
          <mxGeometry x="250" y="170" width="260" height="210" as="geometry" />
        </mxCell>
        <mxCell id="L4K-rOw-liugyd5PohJu-8" value="AWS RDS&lt;br&gt;autenticacion-biometrica-{{perfil}}" style="verticalAlign=top;align=center;spacingTop=8;spacingLeft=2;spacingRight=12;shape=cube;size=10;direction=south;fontStyle=4;html=1;fillColor=#fff2cc;strokeColor=#d6b656;" vertex="1" parent="1">
          <mxGeometry x="580" y="190" width="210" height="60" as="geometry" />
        </mxCell>
        <mxCell id="L4K-rOw-liugyd5PohJu-9" value="&lt;p style=&quot;margin: 0px ; margin-top: 6px ; text-align: center&quot;&gt;&lt;b&gt;Administracion&lt;/b&gt;&lt;/p&gt;&lt;hr&gt;&lt;p style=&quot;margin: 0px ; margin-left: 8px&quot;&gt;&lt;br&gt;&lt;/p&gt;" style="align=left;overflow=fill;html=1;dropTarget=0;" vertex="1" parent="1">
          <mxGeometry x="260" y="240" width="240" height="40" as="geometry" />
        </mxCell>
        <mxCell id="L4K-rOw-liugyd5PohJu-10" value="" style="shape=component;jettyWidth=8;jettyHeight=4;" vertex="1" parent="L4K-rOw-liugyd5PohJu-9">
          <mxGeometry x="1" width="20" height="20" relative="1" as="geometry">
            <mxPoint x="-24" y="4" as="offset" />
          </mxGeometry>
        </mxCell>
        <mxCell id="L4K-rOw-liugyd5PohJu-11" value="&lt;p style=&quot;margin: 0px ; margin-top: 6px ; text-align: center&quot;&gt;&lt;b&gt;Autenticacion&lt;/b&gt;&lt;/p&gt;" style="align=left;overflow=fill;html=1;dropTarget=0;" vertex="1" parent="1">
          <mxGeometry x="260" y="290" width="240" height="40" as="geometry" />
        </mxCell>
        <mxCell id="L4K-rOw-liugyd5PohJu-12" value="" style="shape=component;jettyWidth=8;jettyHeight=4;" vertex="1" parent="L4K-rOw-liugyd5PohJu-11">
          <mxGeometry x="1" width="20" height="20" relative="1" as="geometry">
            <mxPoint x="-24" y="4" as="offset" />
          </mxGeometry>
        </mxCell>
        <mxCell id="L4K-rOw-liugyd5PohJu-18" value="" style="endArrow=none;html=1;entryX=0;entryY=0;entryDx=35;entryDy=210;entryPerimeter=0;" edge="1" parent="1" target="L4K-rOw-liugyd5PohJu-8">
          <mxGeometry width="50" height="50" relative="1" as="geometry">
            <mxPoint x="532" y="225" as="sourcePoint" />
            <mxPoint x="600" y="227" as="targetPoint" />
          </mxGeometry>
        </mxCell>
        <mxCell id="L4K-rOw-liugyd5PohJu-19" value="" style="verticalAlign=top;align=left;spacingTop=8;spacingLeft=2;spacingRight=12;shape=cube;size=10;direction=south;fontStyle=4;html=1;fillColor=#fff2cc;strokeColor=#d6b656;" vertex="1" parent="1">
          <mxGeometry x="240" y="430" width="290" height="210" as="geometry" />
        </mxCell>
        <mxCell id="L4K-rOw-liugyd5PohJu-20" value="&amp;lt;&amp;lt;artefact&amp;gt;&amp;gt;&lt;br&gt;&lt;b&gt;autenticacion-biometrica-tdea &lt;/b&gt;&lt;br&gt;API Gateway. AWS" style="html=1;verticalAlign=top;" vertex="1" parent="1">
          <mxGeometry x="250" y="460" width="260" height="160" as="geometry" />
        </mxCell>
        <mxCell id="L4K-rOw-liugyd5PohJu-21" value="&lt;p style=&quot;margin: 0px ; margin-top: 6px ; text-align: center&quot;&gt;&lt;b&gt;proceso-autenticacion-biometrica&lt;/b&gt;&lt;/p&gt;&lt;p style=&quot;margin: 0px ; margin-top: 6px ; text-align: center&quot;&gt;Lambda. AWS&lt;/p&gt;" style="align=left;overflow=fill;html=1;dropTarget=0;" vertex="1" parent="1">
          <mxGeometry x="257.5" y="530" width="245" height="40" as="geometry" />
        </mxCell>
        <mxCell id="L4K-rOw-liugyd5PohJu-22" value="" style="shape=component;jettyWidth=8;jettyHeight=4;" vertex="1" parent="L4K-rOw-liugyd5PohJu-21">
          <mxGeometry x="1" width="20" height="20" relative="1" as="geometry">
            <mxPoint x="-24" y="4" as="offset" />
          </mxGeometry>
        </mxCell>
        <mxCell id="L4K-rOw-liugyd5PohJu-24" value="" style="endArrow=none;html=1;entryX=0;entryY=0;entryDx=0;entryDy=140;entryPerimeter=0;exitX=0.999;exitY=0.48;exitDx=0;exitDy=0;exitPerimeter=0;" edge="1" parent="1" source="L4K-rOw-liugyd5PohJu-6" target="L4K-rOw-liugyd5PohJu-19">
          <mxGeometry width="50" height="50" relative="1" as="geometry">
            <mxPoint x="542" y="235" as="sourcePoint" />
            <mxPoint x="590" y="235" as="targetPoint" />
          </mxGeometry>
        </mxCell>
      </root>
    </mxGraphModel>
  </diagram>
</mxfile>
